<svg width="48" height="48" viewBox="0 0 48 48" fill="none" xmlns="http://www.w3.org/2000/svg">
<g clip-path="url(#clip0_1_13)">
<path d="M45.6 18.7L41 14.9V7.5C40.9968 7.30824 40.9386 7.12145 40.8322 6.96187C40.7258 6.8023 40.5758 6.67669 40.4 6.6L30.5 2.1H30.1L29.5 2.3L24 5.9L18.5 2.2L17.9 2H17.5L7.59999 6.6C7.42421 6.67669 7.27418 6.8023 7.1678 6.96187C7.06142 7.12145 7.00317 7.30824 6.99999 7.5V14.9L2.39999 18.7C2.26122 18.7783 2.14901 18.8963 2.07774 19.0389C2.00648 19.1814 1.9794 19.342 1.99999 19.5V28.5C1.9794 28.658 2.00648 28.8186 2.07774 28.9611C2.14901 29.1037 2.26122 29.2217 2.39999 29.3L6.99999 33.1V40.5C7.00317 40.6918 7.06142 40.8786 7.1678 41.0381C7.27418 41.1977 7.42421 41.3233 7.59999 41.4L17.5 45.9H17.9L18.5 45.7L24 42.1L29.5 45.8L30.1 46H30.5L40.4 41.5C40.5758 41.4233 40.7258 41.2977 40.8322 41.1381C40.9386 40.9786 40.9968 40.7918 41 40.6V33.1L45.6 29.3C45.7227 29.2292 45.8243 29.1271 45.8946 29.0041C45.9649 28.8811 46.0013 28.7416 46 28.6V19.4C46.0013 19.2584 45.9649 19.1189 45.8946 18.9959C45.8243 18.8729 45.7227 18.7708 45.6 18.7ZM40.5 25.5H42V27.1L38.5 29.9L38.1 30.2L37.7 30C37.5257 29.8998 37.3318 29.8383 37.1316 29.8198C36.9314 29.8012 36.7296 29.826 36.5398 29.8924C36.3501 29.9588 36.1768 30.0653 36.0319 30.2047C35.887 30.344 35.7738 30.513 35.7 30.7C35.5206 31.046 35.4829 31.4482 35.5949 31.8215C35.7069 32.1948 35.9597 32.5099 36.3 32.7L37 33V38.4L30.4 41.5L26.2 38.7L25.5 38.2V25.5H27C27.3978 25.5 27.7793 25.342 28.0606 25.0607C28.342 24.7794 28.5 24.3978 28.5 24C28.5 23.6022 28.342 23.2206 28.0606 22.9393C27.7793 22.658 27.3978 22.5 27 22.5H25.5V9.7L26.2 9.2L30.4 6.4L37 9.5V14.9L36.3 15.2C35.9597 15.3901 35.7069 15.7052 35.5949 16.0785C35.4829 16.4518 35.5206 16.854 35.7 17.2C35.8008 17.4635 35.9788 17.6905 36.2108 17.8511C36.4428 18.0117 36.7178 18.0985 37 18.1L37.7 17.9L38.1 17.7L38.5 18L42 20.9V22.5H40.5C40.1022 22.5 39.7206 22.658 39.4393 22.9393C39.158 23.2206 39 23.6022 39 24C39 24.3978 39.158 24.7794 39.4393 25.0607C39.7206 25.342 40.1022 25.5 40.5 25.5ZM21 25.5H22.5V38.3L21.8 38.8L17.6 41.6L11 38.5V33.1L11.7 32.8C12.0402 32.6099 12.2931 32.2948 12.4051 31.9215C12.5171 31.5482 12.4794 31.146 12.3 30.8C12.2262 30.613 12.113 30.444 11.9681 30.3047C11.8232 30.1653 11.6499 30.0588 11.4602 29.9924C11.2704 29.926 11.0685 29.9012 10.8683 29.9198C10.6682 29.9383 10.4743 29.9998 10.3 30.1L9.89999 30.3L9.49999 30L5.99999 27.1V25.5H7.49999C7.89782 25.5 8.27935 25.342 8.56065 25.0607C8.84196 24.7794 8.99999 24.3978 8.99999 24C8.99999 23.6022 8.84196 23.2206 8.56065 22.9393C8.27935 22.658 7.89782 22.5 7.49999 22.5H5.99999V20.9L9.49999 18.1L9.89999 17.8L10.3 18L11 18.2C11.2821 18.1985 11.5572 18.1117 11.7892 17.9511C12.0212 17.7905 12.1992 17.5635 12.3 17.3C12.4794 16.954 12.5171 16.5518 12.4051 16.1785C12.2931 15.8052 12.0402 15.4901 11.7 15.3L11 15V9.5L17.6 6.4L21.8 9.2L22.5 9.7V22.5H21C20.6022 22.5 20.2206 22.658 19.9393 22.9393C19.658 23.2206 19.5 23.6022 19.5 24C19.5 24.3978 19.658 24.7794 19.9393 25.0607C20.2206 25.342 20.6022 25.5 21 25.5Z" fill="#F36F45"/>
<path d="M13.9 9.9C13.6567 10.2151 13.5248 10.6019 13.5248 11C13.5248 11.3981 13.6567 11.7849 13.9 12.1L16.5 14.6V17.4L12.5 21.4V26.6L16.5 30.6V33.4L13.9 35.9C13.6567 36.2151 13.5248 36.6019 13.5248 37C13.5248 37.3981 13.6567 37.7849 13.9 38.1C14.0472 38.237 14.2204 38.343 14.4094 38.4117C14.5983 38.4804 14.7992 38.5105 15 38.5C15.2008 38.5105 15.4017 38.4804 15.5906 38.4117C15.7796 38.343 15.9528 38.237 16.1 38.1L19.5 34.6V29.4L15.5 25.4V22.6L19.5 18.6V13.4L16.1 9.9C15.7849 9.65674 15.3981 9.52478 15 9.52478C14.6019 9.52478 14.2151 9.65674 13.9 9.9Z" fill="#F36F45"/>
<path d="M31.5 14.6L34.1 12.1C34.3433 11.7849 34.4752 11.3981 34.4752 11C34.4752 10.6019 34.3433 10.2151 34.1 9.9C33.7849 9.65674 33.3981 9.52478 33 9.52478C32.6019 9.52478 32.2151 9.65674 31.9 9.9L28.5 13.4V18.6L32.5 22.6V25.4L28.5 29.4V34.6L31.9 38.1C32.2072 38.3607 32.5971 38.5039 33 38.5039C33.4029 38.5039 33.7928 38.3607 34.1 38.1C34.3433 37.7849 34.4752 37.3981 34.4752 37C34.4752 36.6019 34.3433 36.2151 34.1 35.9L31.5 33.4V30.6L35.5 26.6V21.4L31.5 17.4V14.6Z" fill="#F36F45"/>
</g>
<defs>
<clipPath id="clip0_1_13">
<rect width="48" height="48" fill="white"/>
</clipPath>
</defs>
</svg>
