<svg width="32" height="32" viewBox="0 0 32 32" fill="none" xmlns="http://www.w3.org/2000/svg">
<g clip-path="url(#clip0_1_7)">
<path d="M26 18C25.1156 18.0025 24.257 18.2985 23.5588 18.8414C22.8607 19.3843 22.3624 20.1435 22.142 21H18C17.2046 20.9991 16.4421 20.6828 15.8796 20.1204C15.3172 19.5579 15.0009 18.7954 15 18V14C14.9962 12.9146 14.6358 11.8606 13.9744 11H22.142C22.3854 11.9427 22.9642 12.7642 23.77 13.3106C24.5758 13.857 25.5532 14.0908 26.519 13.9681C27.4848 13.8454 28.3727 13.3747 29.0163 12.6442C29.6599 11.9137 30.015 10.9736 30.015 10C30.015 9.02643 29.6599 8.08627 29.0163 7.35577C28.3727 6.62526 27.4848 6.15456 26.519 6.03188C25.5532 5.90921 24.5758 6.14299 23.77 6.6894C22.9642 7.23581 22.3854 8.05734 22.142 9H9.858C9.61461 8.05734 9.03577 7.23581 8.22999 6.6894C7.42421 6.14299 6.44681 5.90921 5.481 6.03188C4.51518 6.15456 3.62727 6.62526 2.98368 7.35577C2.34009 8.08627 1.98502 9.02643 1.98502 10C1.98502 10.9736 2.34009 11.9137 2.98368 12.6442C3.62727 13.3747 4.51518 13.8454 5.481 13.9681C6.44681 14.0908 7.42421 13.857 8.22999 13.3106C9.03577 12.7642 9.61461 11.9427 9.858 11H10C10.7954 11.0009 11.5579 11.3172 12.1204 11.8796C12.6828 12.4421 12.9991 13.2046 13 14V18C13.0016 19.3256 13.5288 20.5965 14.4662 21.5338C15.4035 22.4712 16.6744 22.9984 18 23H22.142C22.3302 23.7227 22.7174 24.3782 23.2594 24.892C23.8015 25.4057 24.4767 25.7572 25.2085 25.9064C25.9403 26.0557 26.6992 25.9967 27.3992 25.7363C28.0992 25.4759 28.7121 25.0244 29.1683 24.4331C29.6245 23.8418 29.9058 23.1344 29.9802 22.3913C30.0546 21.6482 29.9191 20.8991 29.5892 20.2291C29.2592 19.5591 28.7479 18.995 28.1135 18.601C27.4791 18.207 26.7468 17.9988 26 18ZM26 8C26.3956 8 26.7822 8.1173 27.1111 8.33706C27.44 8.55682 27.6964 8.86918 27.8478 9.23463C27.9991 9.60009 28.0387 10.0022 27.9616 10.3902C27.8844 10.7781 27.6939 11.1345 27.4142 11.4142C27.1345 11.6939 26.7781 11.8844 26.3902 11.9616C26.0022 12.0387 25.6001 11.9991 25.2346 11.8478C24.8692 11.6964 24.5568 11.44 24.3371 11.1111C24.1173 10.7822 24 10.3956 24 10C24.0006 9.46975 24.2115 8.9614 24.5865 8.58646C24.9614 8.21152 25.4698 8.00061 26 8ZM6 12C5.60444 12 5.21776 11.8827 4.88886 11.6629C4.55996 11.4432 4.30362 11.1308 4.15224 10.7654C4.00086 10.3999 3.96126 9.99778 4.03843 9.60982C4.1156 9.22186 4.30608 8.86549 4.58579 8.58579C4.86549 8.30608 5.22186 8.1156 5.60982 8.03843C5.99778 7.96126 6.39991 8.00087 6.76537 8.15224C7.13082 8.30362 7.44318 8.55996 7.66294 8.88886C7.8827 9.21776 8 9.60444 8 10C7.99947 10.5303 7.78859 11.0387 7.41363 11.4136C7.03867 11.7886 6.53027 11.9995 6 12ZM26 24C25.6044 24 25.2178 23.8827 24.8889 23.6629C24.56 23.4432 24.3036 23.1308 24.1522 22.7654C24.0009 22.3999 23.9613 21.9978 24.0384 21.6098C24.1156 21.2219 24.3061 20.8655 24.5858 20.5858C24.8655 20.3061 25.2219 20.1156 25.6098 20.0384C25.9978 19.9613 26.3999 20.0009 26.7654 20.1522C27.1308 20.3036 27.4432 20.56 27.6629 20.8889C27.8827 21.2178 28 21.6044 28 22C27.9993 22.5302 27.7883 23.0385 27.4134 23.4134C27.0385 23.7883 26.5302 23.9993 26 24Z" fill="#F36F45"/>
</g>
<defs>
<clipPath id="clip0_1_7">
<rect width="32" height="32" fill="white"/>
</clipPath>
</defs>
</svg>
